<svg width="34" height="32" viewBox="0 0 34 32" fill="none" xmlns="http://www.w3.org/2000/svg">
<path d="M32.9869 18H18.1563L28.0332 27.8769C28.4107 28.2544 29.0319 28.2851 29.42 27.9194C31.8388 25.6407 33.5025 22.5688 33.9907 19.1156C34.0744 18.5243 33.5838 18 32.9869 18ZM31.9975 13.9499C31.4825 6.48358 25.5163 0.517266 18.0501 0.00226003C17.4801 -0.0371154 17.0001 0.443515 17.0001 1.01477V14.9999H30.9857C31.5569 14.9999 32.0369 14.5199 31.9975 13.9499ZM14.0001 18V3.16917C14.0001 2.57229 13.4757 2.08166 12.8851 2.16541C5.43699 3.21792 -0.256113 9.72487 0.00888657 17.5231C0.281386 25.5319 7.17699 32.0995 15.1895 31.9989C18.3395 31.9595 21.2501 30.9445 23.6432 29.247C24.1369 28.897 24.1694 28.1701 23.7413 27.7419L14.0001 18Z" fill="white"/>
</svg>
