<svg width="54" height="42" viewBox="0 0 54 42" fill="none" xmlns="http://www.w3.org/2000/svg">
<path d="M49.4906 0H4.50937C2.01562 0 0 2.01562 0 4.5V37.5C0 39.9844 2.01562 42 4.50937 42H49.4906C51.9844 42 54 39.9844 54 37.5V4.5C54 2.01562 51.9844 0 49.4906 0ZM5.07187 4.5H48.9281C49.2375 4.5 49.4906 4.75313 49.4906 5.0625V9H4.50937V5.0625C4.50937 4.75313 4.7625 4.5 5.07187 4.5ZM48.9281 37.5H5.07187C4.7625 37.5 4.50937 37.2469 4.50937 36.9375V21H49.4906V36.9375C49.4906 37.2469 49.2375 37.5 48.9281 37.5ZM18 28.125V31.875C18 32.4938 17.4937 33 16.875 33H10.125C9.50625 33 9 32.4938 9 31.875V28.125C9 27.5063 9.50625 27 10.125 27H16.875C17.4937 27 18 27.5063 18 28.125ZM36 28.125V31.875C36 32.4938 35.4938 33 34.875 33H22.125C21.5063 33 21 32.4938 21 31.875V28.125C21 27.5063 21.5063 27 22.125 27H34.875C35.4938 27 36 27.5063 36 28.125Z" fill="#F30098"/>
</svg>
