<svg width="35" height="30" viewBox="0 0 35 30" fill="none" xmlns="http://www.w3.org/2000/svg">
<path d="M24.4635 4.87009L29.9444 10.1563C30.1753 10.379 30.1753 10.7423 29.9444 10.965L16.6736 23.7644L11.0347 24.368C10.2812 24.4501 9.64323 23.8347 9.7283 23.108L10.3542 17.6695L23.625 4.87009C23.8559 4.64739 24.2326 4.64739 24.4635 4.87009ZM34.3073 3.52803L31.342 0.668099C30.4184 -0.2227 28.9175 -0.2227 27.9878 0.668099L25.8368 2.74272C25.6059 2.96542 25.6059 3.32878 25.8368 3.55148L31.3177 8.83766C31.5486 9.06036 31.9253 9.06036 32.1562 8.83766L34.3073 6.76304C35.2309 5.86638 35.2309 4.41883 34.3073 3.52803ZM23.3333 20.2833V26.2493H3.88889V7.4956H17.8524C18.0469 7.4956 18.2292 7.41942 18.3689 7.29049L20.7995 4.94628C21.2613 4.50088 20.9332 3.74487 20.283 3.74487H2.91667C1.30642 3.74487 0 5.00488 0 6.55792V27.187C0 28.74 1.30642 30 2.91667 30H24.3056C25.9158 30 27.2222 28.74 27.2222 27.187V17.9391C27.2222 17.312 26.4384 17.0014 25.9766 17.4409L23.546 19.7851C23.4123 19.9199 23.3333 20.0957 23.3333 20.2833Z" fill="white"/>
</svg>
