<svg width="56" height="39" viewBox="0 0 56 39" fill="none" xmlns="http://www.w3.org/2000/svg">
<path d="M8.4 16.7143C11.4887 16.7143 14 14.2158 14 11.1429C14 8.06987 11.4887 5.57143 8.4 5.57143C5.31125 5.57143 2.8 8.06987 2.8 11.1429C2.8 14.2158 5.31125 16.7143 8.4 16.7143ZM47.6 16.7143C50.6887 16.7143 53.2 14.2158 53.2 11.1429C53.2 8.06987 50.6887 5.57143 47.6 5.57143C44.5112 5.57143 42 8.06987 42 11.1429C42 14.2158 44.5112 16.7143 47.6 16.7143ZM50.4 19.5H44.8C43.26 19.5 41.8687 20.1181 40.8537 21.1192C44.38 23.0431 46.8825 26.5165 47.425 30.6429H53.2C54.7487 30.6429 56 29.398 56 27.8571V25.0714C56 21.9984 53.4888 19.5 50.4 19.5ZM28 19.5C33.4162 19.5 37.8 15.1386 37.8 9.75C37.8 4.36138 33.4162 0 28 0C22.5837 0 18.2 4.36138 18.2 9.75C18.2 15.1386 22.5837 19.5 28 19.5ZM34.72 22.2857H33.9937C32.1737 23.1562 30.1525 23.6786 28 23.6786C25.8475 23.6786 23.835 23.1562 22.0063 22.2857H21.28C15.715 22.2857 11.2 26.7777 11.2 32.3143V34.8214C11.2 37.1283 13.0813 39 15.4 39H40.6C42.9188 39 44.8 37.1283 44.8 34.8214V32.3143C44.8 26.7777 40.285 22.2857 34.72 22.2857ZM15.1463 21.1192C14.1313 20.1181 12.74 19.5 11.2 19.5H5.6C2.51125 19.5 0 21.9984 0 25.0714V27.8571C0 29.398 1.25125 30.6429 2.8 30.6429H8.56625C9.1175 26.5165 11.62 23.0431 15.1463 21.1192Z" fill="#F30098"/>
</svg>
